<svg xmlns="http://www.w3.org/2000/svg" xmlns:xlink="http://www.w3.org/1999/xlink" width="350" zoomAndPan="magnify" viewBox="0 0 262.5 44.999999" height="60" preserveAspectRatio="xMidYMid meet" version="1.0"><defs><g/></defs><g fill="#ffffff" fill-opacity="1"><g transform="translate(1.772015, 38.145227)"><g><path d="M 15.9375 -5.421875 C 16.851562 -5.421875 17.738281 -5.5625 18.59375 -5.84375 C 19.457031 -6.125 20.09375 -6.390625 20.5 -6.640625 L 21.109375 -7.0625 L 23.671875 -1.953125 C 23.578125 -1.890625 23.457031 -1.800781 23.3125 -1.6875 C 23.164062 -1.582031 22.820312 -1.382812 22.28125 -1.09375 C 21.738281 -0.8125 21.15625 -0.5625 20.53125 -0.34375 C 19.914062 -0.132812 19.109375 0.0507812 18.109375 0.21875 C 17.109375 0.394531 16.078125 0.484375 15.015625 0.484375 C 12.566406 0.484375 10.242188 -0.113281 8.046875 -1.3125 C 5.859375 -2.519531 4.09375 -4.175781 2.75 -6.28125 C 1.40625 -8.394531 0.734375 -10.675781 0.734375 -13.125 C 0.734375 -14.976562 1.125 -16.753906 1.90625 -18.453125 C 2.695312 -20.160156 3.75 -21.617188 5.0625 -22.828125 C 6.375 -24.046875 7.898438 -25.015625 9.640625 -25.734375 C 11.390625 -26.460938 13.179688 -26.828125 15.015625 -26.828125 C 16.710938 -26.828125 18.28125 -26.625 19.71875 -26.21875 C 21.15625 -25.8125 22.171875 -25.40625 22.765625 -25 L 23.671875 -24.40625 L 21.109375 -19.296875 C 20.960938 -19.421875 20.738281 -19.570312 20.4375 -19.75 C 20.144531 -19.9375 19.550781 -20.175781 18.65625 -20.46875 C 17.757812 -20.769531 16.851562 -20.921875 15.9375 -20.921875 C 14.488281 -20.921875 13.1875 -20.6875 12.03125 -20.21875 C 10.882812 -19.75 9.972656 -19.128906 9.296875 -18.359375 C 8.628906 -17.597656 8.117188 -16.773438 7.765625 -15.890625 C 7.421875 -15.003906 7.25 -14.101562 7.25 -13.1875 C 7.25 -11.1875 8 -9.390625 9.5 -7.796875 C 11 -6.210938 13.144531 -5.421875 15.9375 -5.421875 Z M 15.9375 -5.421875 "/></g></g></g><g fill="#ffffff" fill-opacity="1"><g transform="translate(25.816292, 38.145227)"><g><path d="M 7.921875 -10.578125 L 7.921875 0 L 1.921875 0 L 1.921875 -26.34375 L 7.921875 -26.34375 L 7.921875 -15.84375 L 16.421875 -15.84375 L 16.421875 -26.34375 L 22.421875 -26.34375 L 22.421875 0 L 16.421875 0 L 16.421875 -10.578125 Z M 7.921875 -10.578125 "/></g></g></g><g fill="#ffffff" fill-opacity="1"><g transform="translate(50.147955, 38.145227)"><g><path d="M 7.921875 -26.34375 L 7.921875 0 L 1.921875 0 L 1.921875 -26.34375 Z M 7.921875 -26.34375 "/></g></g></g><g fill="#ffffff" fill-opacity="1"><g transform="translate(59.982802, 38.145227)"><g><path d="M 1.921875 -26.34375 L 11.53125 -26.34375 C 14.207031 -26.34375 16.375 -25.648438 18.03125 -24.265625 C 19.695312 -22.890625 20.53125 -20.878906 20.53125 -18.234375 C 20.53125 -15.597656 19.6875 -13.523438 18 -12.015625 C 16.320312 -10.515625 14.164062 -9.765625 11.53125 -9.765625 L 7.921875 -9.765625 L 7.921875 0 L 1.921875 0 Z M 7.921875 -14.5625 L 9.609375 -14.5625 C 10.953125 -14.5625 12.054688 -14.832031 12.921875 -15.375 C 13.785156 -15.914062 14.21875 -16.804688 14.21875 -18.046875 C 14.21875 -19.296875 13.785156 -20.191406 12.921875 -20.734375 C 12.054688 -21.285156 10.953125 -21.5625 9.609375 -21.5625 L 7.921875 -21.5625 Z M 7.921875 -14.5625 "/></g></g></g><g fill="#ffffff" fill-opacity="1"><g transform="translate(81.249053, 38.145227)"><g><path d="M 7.921875 -26.34375 L 7.921875 0 L 1.921875 0 L 1.921875 -26.34375 Z M 7.921875 -26.34375 "/></g></g></g><g fill="#ffffff" fill-opacity="1"><g transform="translate(91.0839, 38.145227)"><g><path d="M 1.921875 -11.6875 L 12.203125 -11.6875 L 12.203125 -6.796875 L 1.921875 -6.796875 Z M 1.921875 -11.6875 "/></g></g></g><g fill="#ffffff" fill-opacity="1"><g transform="translate(105.197542, 38.145227)"><g><path d="M 11.625 -26.828125 C 13.050781 -26.828125 14.445312 -26.617188 15.8125 -26.203125 C 17.175781 -25.785156 18.1875 -25.375 18.84375 -24.96875 L 19.796875 -24.34375 L 17.375 -19.546875 C 17.1875 -19.671875 16.921875 -19.832031 16.578125 -20.03125 C 16.234375 -20.238281 15.59375 -20.507812 14.65625 -20.84375 C 13.71875 -21.1875 12.847656 -21.359375 12.046875 -21.359375 C 11.046875 -21.359375 10.269531 -21.144531 9.71875 -20.71875 C 9.175781 -20.300781 8.90625 -19.726562 8.90625 -19 C 8.90625 -18.632812 9.03125 -18.296875 9.28125 -17.984375 C 9.539062 -17.679688 9.976562 -17.351562 10.59375 -17 C 11.21875 -16.65625 11.765625 -16.375 12.234375 -16.15625 C 12.703125 -15.945312 13.425781 -15.628906 14.40625 -15.203125 C 16.101562 -14.472656 17.550781 -13.484375 18.75 -12.234375 C 19.957031 -10.992188 20.5625 -9.585938 20.5625 -8.015625 C 20.5625 -6.503906 20.289062 -5.179688 19.75 -4.046875 C 19.207031 -2.921875 18.460938 -2.039062 17.515625 -1.40625 C 16.566406 -0.769531 15.515625 -0.296875 14.359375 0.015625 C 13.210938 0.328125 11.972656 0.484375 10.640625 0.484375 C 9.484375 0.484375 8.351562 0.363281 7.25 0.125 C 6.144531 -0.101562 5.21875 -0.394531 4.46875 -0.75 C 3.726562 -1.101562 3.054688 -1.445312 2.453125 -1.78125 C 1.859375 -2.125 1.425781 -2.414062 1.15625 -2.65625 L 0.734375 -3 L 3.734375 -8.046875 C 3.992188 -7.835938 4.347656 -7.566406 4.796875 -7.234375 C 5.242188 -6.898438 6.035156 -6.457031 7.171875 -5.90625 C 8.304688 -5.351562 9.3125 -5.078125 10.1875 -5.078125 C 12.71875 -5.078125 13.984375 -5.941406 13.984375 -7.671875 C 13.984375 -8.023438 13.894531 -8.359375 13.71875 -8.671875 C 13.539062 -8.984375 13.222656 -9.289062 12.765625 -9.59375 C 12.304688 -9.90625 11.898438 -10.148438 11.546875 -10.328125 C 11.191406 -10.515625 10.613281 -10.789062 9.8125 -11.15625 C 9.019531 -11.53125 8.429688 -11.816406 8.046875 -12.015625 C 6.453125 -12.796875 5.21875 -13.773438 4.34375 -14.953125 C 3.46875 -16.140625 3.03125 -17.414062 3.03125 -18.78125 C 3.03125 -21.144531 3.898438 -23.078125 5.640625 -24.578125 C 7.390625 -26.078125 9.382812 -26.828125 11.625 -26.828125 Z M 11.625 -26.828125 "/></g></g></g><g fill="#ffffff" fill-opacity="1"><g transform="translate(126.655391, 38.145227)"><g><path d="M 0.734375 -13.1875 C 0.734375 -17 2.03125 -20.222656 4.625 -22.859375 C 7.226562 -25.503906 10.359375 -26.828125 14.015625 -26.828125 C 17.703125 -26.828125 20.832031 -25.507812 23.40625 -22.875 C 25.988281 -20.25 27.28125 -17.019531 27.28125 -13.1875 C 27.28125 -9.332031 26.007812 -6.085938 23.46875 -3.453125 C 20.9375 -0.828125 17.785156 0.484375 14.015625 0.484375 C 10.160156 0.484375 6.984375 -0.816406 4.484375 -3.421875 C 1.984375 -6.035156 0.734375 -9.289062 0.734375 -13.1875 Z M 7.21875 -13.1875 C 7.21875 -11.800781 7.429688 -10.539062 7.859375 -9.40625 C 8.285156 -8.269531 9.03125 -7.304688 10.09375 -6.515625 C 11.15625 -5.722656 12.460938 -5.328125 14.015625 -5.328125 C 16.253906 -5.328125 17.941406 -6.09375 19.078125 -7.625 C 20.222656 -9.164062 20.796875 -11.019531 20.796875 -13.1875 C 20.796875 -15.34375 20.210938 -17.191406 19.046875 -18.734375 C 17.890625 -20.273438 16.210938 -21.046875 14.015625 -21.046875 C 11.847656 -21.046875 10.171875 -20.273438 8.984375 -18.734375 C 7.804688 -17.191406 7.21875 -15.34375 7.21875 -13.1875 Z M 7.21875 -13.1875 "/></g></g></g><g fill="#ffffff" fill-opacity="1"><g transform="translate(154.659152, 38.145227)"><g><path d="M 7.921875 -16.359375 L 7.921875 0 L 1.921875 0 L 1.921875 -26.34375 L 7.921875 -26.34375 L 18.390625 -10 L 18.453125 -10 L 18.453125 -26.34375 L 24.46875 -26.34375 L 24.46875 0 L 18.453125 0 L 7.984375 -16.359375 Z M 7.921875 -16.359375 "/></g></g></g><g fill="#ffffff" fill-opacity="1"><g transform="translate(181.034419, 38.145227)"><g><path d="M 1.921875 -26.34375 L 11.34375 -26.34375 C 13.875 -26.34375 15.9375 -25.664062 17.53125 -24.3125 C 19.125 -22.96875 19.921875 -21.039062 19.921875 -18.53125 C 19.921875 -16.59375 19.4375 -14.96875 18.46875 -13.65625 C 17.5 -12.34375 16.1875 -11.421875 14.53125 -10.890625 L 23.609375 0 L 15.96875 0 L 7.921875 -10.40625 L 7.921875 0 L 1.921875 0 Z M 7.921875 -14.65625 L 8.625 -14.65625 C 9.175781 -14.65625 9.644531 -14.664062 10.03125 -14.6875 C 10.414062 -14.707031 10.851562 -14.78125 11.34375 -14.90625 C 11.832031 -15.039062 12.222656 -15.222656 12.515625 -15.453125 C 12.816406 -15.691406 13.070312 -16.035156 13.28125 -16.484375 C 13.5 -16.929688 13.609375 -17.472656 13.609375 -18.109375 C 13.609375 -18.742188 13.5 -19.285156 13.28125 -19.734375 C 13.070312 -20.179688 12.816406 -20.519531 12.515625 -20.75 C 12.222656 -20.988281 11.832031 -21.171875 11.34375 -21.296875 C 10.851562 -21.429688 10.414062 -21.507812 10.03125 -21.53125 C 9.644531 -21.550781 9.175781 -21.5625 8.625 -21.5625 L 7.921875 -21.5625 Z M 7.921875 -14.65625 "/></g></g></g><g fill="#ffffff" fill-opacity="1"><g transform="translate(203.897238, 38.145227)"><g><path d="M 7.921875 -26.34375 L 7.921875 0 L 1.921875 0 L 1.921875 -26.34375 Z M 7.921875 -26.34375 "/></g></g></g><g fill="#ffffff" fill-opacity="1"><g transform="translate(213.732073, 38.145227)"><g><path d="M 11.625 -26.828125 C 13.050781 -26.828125 14.445312 -26.617188 15.8125 -26.203125 C 17.175781 -25.785156 18.1875 -25.375 18.84375 -24.96875 L 19.796875 -24.34375 L 17.375 -19.546875 C 17.1875 -19.671875 16.921875 -19.832031 16.578125 -20.03125 C 16.234375 -20.238281 15.59375 -20.507812 14.65625 -20.84375 C 13.71875 -21.1875 12.847656 -21.359375 12.046875 -21.359375 C 11.046875 -21.359375 10.269531 -21.144531 9.71875 -20.71875 C 9.175781 -20.300781 8.90625 -19.726562 8.90625 -19 C 8.90625 -18.632812 9.03125 -18.296875 9.28125 -17.984375 C 9.539062 -17.679688 9.976562 -17.351562 10.59375 -17 C 11.21875 -16.65625 11.765625 -16.375 12.234375 -16.15625 C 12.703125 -15.945312 13.425781 -15.628906 14.40625 -15.203125 C 16.101562 -14.472656 17.550781 -13.484375 18.75 -12.234375 C 19.957031 -10.992188 20.5625 -9.585938 20.5625 -8.015625 C 20.5625 -6.503906 20.289062 -5.179688 19.75 -4.046875 C 19.207031 -2.921875 18.460938 -2.039062 17.515625 -1.40625 C 16.566406 -0.769531 15.515625 -0.296875 14.359375 0.015625 C 13.210938 0.328125 11.972656 0.484375 10.640625 0.484375 C 9.484375 0.484375 8.351562 0.363281 7.25 0.125 C 6.144531 -0.101562 5.21875 -0.394531 4.46875 -0.75 C 3.726562 -1.101562 3.054688 -1.445312 2.453125 -1.78125 C 1.859375 -2.125 1.425781 -2.414062 1.15625 -2.65625 L 0.734375 -3 L 3.734375 -8.046875 C 3.992188 -7.835938 4.347656 -7.566406 4.796875 -7.234375 C 5.242188 -6.898438 6.035156 -6.457031 7.171875 -5.90625 C 8.304688 -5.351562 9.3125 -5.078125 10.1875 -5.078125 C 12.71875 -5.078125 13.984375 -5.941406 13.984375 -7.671875 C 13.984375 -8.023438 13.894531 -8.359375 13.71875 -8.671875 C 13.539062 -8.984375 13.222656 -9.289062 12.765625 -9.59375 C 12.304688 -9.90625 11.898438 -10.148438 11.546875 -10.328125 C 11.191406 -10.515625 10.613281 -10.789062 9.8125 -11.15625 C 9.019531 -11.53125 8.429688 -11.816406 8.046875 -12.015625 C 6.453125 -12.796875 5.21875 -13.773438 4.34375 -14.953125 C 3.46875 -16.140625 3.03125 -17.414062 3.03125 -18.78125 C 3.03125 -21.144531 3.898438 -23.078125 5.640625 -24.578125 C 7.390625 -26.078125 9.382812 -26.828125 11.625 -26.828125 Z M 11.625 -26.828125 "/></g></g></g><g fill="#ffffff" fill-opacity="1"><g transform="translate(235.189934, 38.145227)"><g><path d="M 15.296875 -26.34375 L 25.9375 0 L 19.484375 0 L 17.53125 -5.265625 L 7.5 -5.265625 L 5.5625 0 L -0.890625 0 L 9.734375 -26.34375 Z M 15.484375 -10.546875 L 12.546875 -18.203125 L 12.484375 -18.203125 L 9.546875 -10.546875 Z M 15.484375 -10.546875 "/></g></g></g></svg>