<svg xmlns="http://www.w3.org/2000/svg" width="100" height="100" version="1.0" viewBox="0 0 75 75"><path d="M61.6953 36.289c.664 0 1.207.543 1.207 1.211v9.6758h2.422V39.918c0-.664.5429-1.207 1.207-1.207.668 0 1.2109.543 1.2109 1.207v7.2578h2.418v-4.836c0-.668.543-1.2109 1.2109-1.2109.668 0 1.211.543 1.211 1.211v14.582a3.654 3.654 0 0 1-.3829 1.625l-2.039 4.0742v2.7031H50.8047V62.5l-3.0977-4.1328c-.3789-.5078-.621-1.1016-.6992-1.7266l-.8555-6.8593c-.1523-1.1954-.582-2.3594-1.2539-3.3594l-1.2422-1.8672c-.0703-.1094-.1093-.2305-.1093-.3594 0-.3594.289-.6484.6484-.6484 2.5586 0 4.7734 1.8203 5.2734 4.3242l1.5547 7.7734h2.9493l1.0351-2.0625c.414-.8398.6367-1.7734.6367-2.711V25.4024c0-.664.543-1.207 1.211-1.207.664 0 1.211.543 1.211 1.207v21.7735h2.4179V37.5c0-.668.543-1.211 1.211-1.211ZM72.582 72.582H48.3867v-4.8398H72.582ZM56.4531 21.8164c-3.4843-2.3516-6.2031-5.621-7.8633-9.4922-.1367-.3164-.203-.6484-.203-1.1054 0-.6641.2694-1.3086.7382-1.7774l1.6797-1.6836c.6406-.6367 1.7812-.6367 2.4219 0l2.1289 2.1328c.1875.1875.289.4297.289.6953v.1602c0 .371-.207.707-.543.875-1.1562.5781-1.875 1.7422-1.875 3.0351v.1641c0 .9063.3555 1.7617.9962 2.4024l1.1328 1.1367c.6445.6406 1.5.996 2.4062.996h.1602c1.2968 0 2.457-.7187 3.039-1.875a.969.969 0 0 1 .875-.5468h.1602c.2656 0 .5039.1055.6953.289l2.129 2.1329c.3163.3164.5038.7617.5038 1.211 0 .4452-.1875.8905-.5039 1.207l-1.6797 1.6835c-.7422.7422-1.961.9414-2.9023.4727l-.1055-.0547c-.5742-1.2344-1.8242-2.1016-3.2773-2.1016-.1367 0-.2696.0235-.4024.043Zm-11.6953 7.2148c-2.0039 0-3.6289-1.625-3.6289-3.6289V6.047c0-2.004 1.625-3.629 3.629-3.629H68.953c2.004 0 3.629 1.625 3.629 3.629v19.3554c0 2.004-1.625 3.629-3.629 3.629h-8.4687v-2.5235c.289.0586.582.1055.8789.1055 1.293 0 2.5664-.5235 3.4883-1.4453l1.6796-1.6836c.7813-.7813 1.211-1.8203 1.211-2.918 0-1.1016-.4297-2.1406-1.211-2.9219l-2.1289-2.1328c-.6445-.6406-1.5-.996-2.4062-.996h-.1602c-1.2968 0-2.457.7187-3.039 1.875-.164.3359-.5.5429-.875.5429h-.1602c-.2656 0-.5039-.1016-.6953-.2852l-1.1328-1.1367c-.1836-.1875-.289-.4297-.289-.6914v-.164c0-.3711.207-.707.5429-.8711 1.1602-.582 1.879-1.7461 1.879-3.0391v-.1602c0-.9101-.3556-1.7656-1-2.4062l-2.129-2.1328c-1.5586-1.5586-4.2813-1.5586-5.8398 0L47.414 7.7305c-.922.9218-1.4453 2.1914-1.4453 3.6015 0 .672.1328 1.3282.3945 1.9414 1.6836 3.918 4.3281 7.2813 7.707 9.8282-.5195.6289-.8437 1.4218-.8437 2.3007v3.629Zm24.1953 2.422c3.336 0 6.0469-2.715 6.0469-6.0509V6.047C75 2.7109 72.289 0 68.9531 0H44.7578c-3.336 0-6.0469 2.711-6.0469 6.0469v19.3554c0 3.336 2.711 6.0508 6.047 6.0508h8.4687v19.418c0 .5547-.129 1.1016-.3711 1.5977l-1.0157-5.0743c-.7226-3.6289-3.9414-6.2656-7.6445-6.2656-1.6914 0-3.0664 1.375-3.0664 3.0664 0 .6055.1797 1.1953.5156 1.7031l1.2461 1.8633c.461.6914.7578 1.4961.8594 2.3164l.8555 6.8633a6.0828 6.0828 0 0 0 1.164 2.875l2.6172 3.4883v2.0195h-2.418V75H75v-9.6758h-2.418v-2.1328l1.7813-3.5625c.414-.836.6367-1.7734.6367-2.707v-14.582c0-2.004-1.625-3.629-3.629-3.629-.4765 0-.9296.0977-1.3515.2618-.414-1.5391-1.8164-2.6836-3.4882-2.6836-.4766 0-.9297.1015-1.3516.2656-.414-1.539-1.8125-2.6836-3.4844-2.6836-.4258 0-.8281.0898-1.211.2227V31.453h8.4688M33.871 64.1133c0 2.0039-1.625 3.6289-3.6288 3.6289H6.0469c-2.004 0-3.629-1.625-3.629-3.629V44.7579c0-2.0039 1.625-3.6289 3.629-3.6289h24.1953c2.0039 0 3.6289 1.625 3.6289 3.629Zm-3.6288-25.4024H6.0469C2.7109 38.711 0 41.422 0 44.758v19.3554c0 3.336 2.711 6.0469 6.0469 6.0469h24.1953c3.336 0 6.0469-2.711 6.0469-6.047V44.7579c0-3.336-2.711-6.0469-6.047-6.0469M33.871 25.4023c0 2.004-1.625 3.629-3.6288 3.629H6.0469c-2.004 0-3.629-1.625-3.629-3.629V6.047c0-2.004 1.625-3.629 3.629-3.629h24.1953c2.0039 0 3.6289 1.625 3.6289 3.629ZM30.2423 0H6.0469C2.7109 0 0 2.711 0 6.0469v19.3554c0 3.336 2.711 6.0508 6.0469 6.0508h24.1953c3.336 0 6.0469-2.7148 6.0469-6.0508V6.047C36.289 2.7109 33.578 0 30.242 0"/><path d="M18.1445 19.3555c-1.332 0-2.418-1.086-2.418-2.422v-2.4179c0-1.332 1.086-2.418 2.418-2.418s2.422 1.086 2.422 2.418v2.418c0 1.336-1.09 2.4219-2.422 2.4219Zm0-14.5157c-5.336 0-9.6758 4.3399-9.6758 9.6758v2.418c0 5.336 4.3399 9.6797 9.6758 9.6797v-2.418c-4 0-7.2578-3.2578-7.2578-7.2617v-2.418c0-4 3.2578-7.2578 7.2578-7.2578 4.004 0 7.2578 3.2578 7.2578 7.2578v6.0508c0 .664-.543 1.207-1.207 1.207-.668 0-1.211-.543-1.211-1.207v-6.0508c0-2.668-2.1679-4.8398-4.8398-4.8398-2.668 0-4.8398 2.1719-4.8398 4.8398v2.418c0 2.6719 2.1719 4.8398 4.8398 4.8398.9063 0 1.7461-.2656 2.4727-.6992.25 1.7578 1.746 3.1211 3.5781 3.1211 2 0 3.629-1.6289 3.629-3.6289v-6.0508c0-5.336-4.3438-9.6758-9.6798-9.6758M12.3008 55.1406l-5.043 4.0352v-9.0781Zm9.1172-.8515c-1.7461 1.75-4.8008 1.75-6.547 0l-5.9023-5.9024h18.3516Zm2.5742.8554 5.039-5.0468v9.078Zm-9.8828 1.6485c1.1758.8242 2.5703 1.2734 4.0351 1.2734 1.4649 0 2.8594-.4492 4.0352-1.2734l4.6133 3.6914H9.496Zm-9.2696 6.1093h26.6133V45.9688H4.8398v16.9335"/></svg>