<svg xmlns="http://www.w3.org/2000/svg" width="100" height="100" version="1.0" viewBox="0 0 75 75"><defs><clipPath id="a"><path d="M0 10h75v55.3906H0Zm0 0"/></clipPath></defs><path d="M30.4023 43.1055c0 .4258-.082.836-.2421 1.2304-.1641.3907-.3946.7383-.6954 1.0391a3.0986 3.0986 0 0 1-1.0351.6953 3.1218 3.1218 0 0 1-1.2227.2461 3.136 3.136 0 0 1-1.2226-.246c-.3907-.1602-.7344-.3946-1.0352-.6954a3.1433 3.1433 0 0 1-.6914-1.039 3.1742 3.1742 0 0 1-.246-1.2305c0-.4258.082-.836.246-1.2266a3.12 3.12 0 0 1 .6914-1.043 3.1992 3.1992 0 0 1 1.0352-.6953 3.136 3.136 0 0 1 1.2226-.246c.4258 0 .832.082 1.2227.246.3906.164.7383.3946 1.0351.6953.3008.3008.5313.6485.6954 1.043a3.209 3.209 0 0 1 .2421 1.2266Zm0 0"/><path d="m35.121 43.461-1.496-3.2422c-.871-1.8868-2.504-3.3204-4.4805-3.9297-1.9804-.6172-4.1445-.3555-5.9336.7148-2.4101 1.4453-4.664 3.2656-7.0937 5.7305a28.0643 28.0643 0 0 0-1.7031 1.8906c-.4375.5313-.3633 1.3164.168 1.754.5273.4413 1.3085.3632 1.7421-.1642a26.2705 26.2705 0 0 1 1.5547-1.7265c2.2773-2.3086 4.375-4.0078 6.6016-5.3438 1.1875-.707 2.6172-.8828 3.9297-.4765 1.328.414 2.3789 1.336 2.9609 2.6015l1.496 3.2422c.4688 1.0156.086 2.2305-.871 2.7617-.1953.1094-.3906.2227-.5898.336-.5938.3476-.793 1.1093-.4493 1.707a1.2418 1.2418 0 0 0 1.0742.6172c.211 0 .4258-.0547.6211-.168.1797-.1093.3633-.211.5391-.3086 2.0977-1.1601 2.9453-3.7968 1.9297-5.996ZM41.4258 56.211c0 .5195-.1016 1.0156-.2969 1.4921-.1992.4805-.4766.9024-.8437 1.2696a3.873 3.873 0 0 1-1.2579.8437 3.8147 3.8147 0 0 1-1.4843.2969c-.5157 0-1.0117-.0977-1.4883-.2969a3.873 3.873 0 0 1-1.2578-.8437 3.9229 3.9229 0 0 1-.8438-1.2696 3.8929 3.8929 0 0 1-.293-1.4922c0-.5156.0977-1.0156.293-1.4922.1992-.4804.4805-.9023.8438-1.2656a3.8232 3.8232 0 0 1 1.2578-.8476c.4766-.1992.9726-.297 1.4883-.297.5117 0 1.0078.0977 1.4843.297a3.8232 3.8232 0 0 1 1.2579.8476c.3671.3633.6445.7852.8437 1.2657.1953.4765.2969.9765.2969 1.4921Zm0 0"/><g clip-path="url(#a)"><path d="M71.7422 44.1523c-2.4922-5.168-4.4649-9.0273-6.0078-11.7578 1.375-2.211 2.4297-4.586 3.1367-7.0703.1445-.496 3.461-12.1758-1.0117-14.8398-.9805-.5938-2.129-.4453-4.293.0117-2.2227.4726-4.1758 1.2969-7.4648 3.1523-1.3438.7578-2.7305 1.5977-4.125 2.4922-2.75-1.6289-5.957-2.7422-9.3516-3.2968-.1016-.0274-.2031-.047-.3125-.0508-1.5-.2305-3.0352-.3594-4.5898-.3594-5.2188 0-10.3672 1.3125-14.6016 3.707-1.3438-.8633-2.707-1.6797-4.1445-2.4922-3.2891-1.8554-5.2422-2.6797-7.4727-3.1562-1.1484-.2422-1.9805-.418-2.6914-.418-.6133 0-1.1367.1328-1.586.4063-4.4765 2.668-1.16 14.3476-1.0195 14.8437.711 2.4844 1.7657 4.8594 3.1407 7.0703-1.543 2.7305-3.5157 6.5899-6.0118 11.7617-1.168 2.4415-1.9882 5.2774-2.8047 8.086-.414 1.4414-.1445 2.957.754 4.1562 1 1.3399 2.5742 2.0508 4.2734 1.875 1.5976-.164 2.9336-.2343 4.332-.2343 1.1602 0 2.3399.0507 3.6094.1562l1.7969.1484c4.1562.3399 5.4843.4493 9.3203 1.1993 1.5742 1.3476 3.6875 2.9804 6.3906 4.1875.8164.3593 1.6133.6758 2.3711.9414 1.3438.4648 2.7422.7031 4.1602.7031 1.418 0 2.8203-.2383 4.164-.7031.7578-.2656 1.5547-.582 2.375-.9414 2.6992-1.207 4.8125-2.8399 6.3867-4.1875 3.836-.75 5.1641-.8594 9.3204-1.1992l1.7968-.1485c1.2696-.1055 2.4492-.1562 3.6094-.1562 1.3984 0 2.7383.0703 4.332.2343 1.7032.1758 3.2735-.5351 4.2735-1.875.8945-1.1992 1.168-2.7148.7344-4.2187-.797-2.7461-1.6172-5.582-2.7891-8.0274Zm.0742 10.75c-.4805.6407-1.2305.9766-2.039.8907-.961-.0977-1.8516-.164-2.7227-.2032-.289-.5664-.582-1.1718-.8945-1.8203-1.2774-2.6445-2.8672-5.9375-5.4493-9.0898-.4336-.5352-1.2148-.6094-1.746-.1719-.5274.4375-.6016 1.2227-.168 1.754 2.3945 2.9218 3.9101 6.0702 5.1328 8.5976.1133.2422.2266.4648.336.6953-.9337.0234-1.879.0742-2.8868.1562l-1.793.1485c-3.5547.293-5.1484.4218-8.0273.9414-.668-1.6328-1.6875-3.8086-3.7148-5.9844-1.1758-1.2617-2.7305-2.4219-4.7579-3.543-.957-.5312-1.3437-1.746-.871-2.7617l1.332-2.8906c.625-1.3516 1.7968-2.375 3.2187-2.8008 1.4219-.4297 2.9649-.2226 4.2305.5625 1.871 1.168 3.711 2.6484 5.6289 4.5234.4883.4805 1.2734.4727 1.754-.0195.4765-.496.4687-1.2812-.0235-1.7656-2.047-2.004-4.0274-3.5898-6.0547-4.8555-1.8672-1.1601-4.1446-1.4687-6.2461-.832-2.1016.6289-3.832 2.1367-4.754 4.1367l-1.3359 2.8906c-1.0156 2.1993-.1718 4.832 1.9258 5.9961 1.7696.9805 3.164 2.0078 4.1446 3.0625 1.6171 1.7383 2.4882 3.4649 3.0937 4.9024-.0078.0078-.0195.0117-.0273.0195-1.4688 1.2695-3.4766 2.8711-6.0235 4.0078-.7539.332-1.4843.625-2.1797.8633-2.168.754-4.539.754-6.707 0-.6914-.2383-1.4258-.5313-2.1758-.8633-2.4375-1.086-4.375-2.5937-5.8242-3.836.0352-.0976.0703-.1874.1055-.289.496-1.3945 1.0508-2.9726 2.7578-4.8047.2812-.3008.6015-.6054.9492-.9062.5234-.4453.586-1.2305.1406-1.754-.4414-.5273-1.2226-.5898-1.746-.1445-.418.3594-.8087.7305-1.1524 1.1016-2.0586 2.211-2.7695 4.211-3.2852 5.6719-.043.1289-.0898.246-.1328.371-3.0742-.5663-4.6484-.6991-8.3281-1l-1.789-.1445c-1.0079-.0859-1.957-.1289-2.8946-.1484.1133-.2344.2227-.461.3399-.7031.8593-1.7813 1.8359-3.8008 3.1406-5.8399.371-.578.2031-1.3515-.3711-1.7226-.5781-.3711-1.3438-.2031-1.7149.375-1.3867 2.164-2.3945 4.2539-3.2851 6.0976-.3125.6485-.6055 1.25-.8946 1.8164a52.53 52.53 0 0 0-2.7226.2032c-.8086.086-1.5586-.25-2.0352-.8907-.4218-.5664-.5507-1.2812-.3359-2.0273.2852-.9805.5781-1.9648.879-2.9414h1.164c.6836 0 1.2382-.5586 1.2382-1.2461s-.5546-1.246-1.2382-1.246h-.3243c.2266-.6056.4688-1.1876.7188-1.75h1.6836c.6836 0 1.2383-.5548 1.2383-1.2462 0-.6875-.5547-1.246-1.2383-1.246h-.4961c2.1992-4.5 3.9453-7.8556 5.3086-10.211.2344-.4102.2226-.9219-.039-1.3164-1.4376-2.1836-2.5274-4.5508-3.2423-7.043C7.0352 19.2461 6.9883 13.5195 8.5 12.6211c.0273-.0156.0898-.0547.3164-.0547.4531 0 1.1758.1524 2.1836.3672 1.6719.3555 3.3164.9414 6.7656 2.8867a85.0686 85.0686 0 0 1 4.6524 2.8281 1.233 1.233 0 0 0 1.3164.0235c3.5976-2.1875 8.0156-3.4766 12.5703-3.6992v5.8515c0 .6875.5547 1.2461 1.2383 1.2461.6875 0 1.2422-.5586 1.2422-1.246v-5.8634c.7617.0274 1.5195.082 2.2656.172v1.3476c0 .6875.5547 1.246 1.2422 1.246.6836 0 1.2383-.5585 1.2383-1.246v-.9375c2.8554.6133 5.5234 1.664 7.793 3.121.41.2618.9374.2618 1.3437-.0038 1.578-1.0313 3.1445-1.9883 4.6523-2.8399 3.4492-1.9414 5.0899-2.5312 6.7656-2.8906 1.004-.211 1.7305-.3633 2.1836-.3633.2266 0 .289.039.3203.0586 1.5079.8945 1.461 6.6172-.0976 12.0078-.711 2.4883-1.8008 4.8555-3.2383 7.039a1.2495 1.2495 0 0 0-.039 1.3165c1.5624 2.6992 3.621 6.707 6.2968 12.25 1.082 2.2539 1.8711 4.9922 2.6563 7.6992.1953.6836.0703 1.3984-.3516 1.9648Zm0 0"/></g><path d="M65.8672 41.5586c-.707-1.4219-1.3594-2.7031-1.961-3.8516-.3203-.6093-1.0703-.8437-1.6757-.5234-.6055.3164-.8399 1.0703-.5196 1.6797.5938 1.1367 1.2383 2.4062 1.9375 3.8125.2188.4336.6563.6875 1.1094.6875.1875 0 .379-.043.5547-.1328.6133-.3086.8633-1.0586.5547-1.672ZM67.5117 44.9023c-.3008-.621-1.0469-.875-1.6601-.5742-.6172.3008-.8711 1.0469-.5704 1.668l.5743 1.1875c.211.4453.6484.7031 1.1054.7031.1797 0 .3633-.043.5391-.125.6172-.293.879-1.0508.586-1.6719ZM51.0703 43.1055c0 .4258-.082.836-.246 1.2304a3.1433 3.1433 0 0 1-.6915 1.0391 3.0986 3.0986 0 0 1-1.0351.6953 3.136 3.136 0 0 1-1.2227.2461 3.136 3.136 0 0 1-1.2227-.246 3.0986 3.0986 0 0 1-1.0351-.6954 3.1433 3.1433 0 0 1-.6914-1.039 3.1742 3.1742 0 0 1-.2461-1.2305c0-.4258.082-.836.246-1.2266a3.12 3.12 0 0 1 .6915-1.043c.2969-.3007.6445-.5312 1.0351-.6953a3.136 3.136 0 0 1 1.2227-.246c.4219 0 .832.082 1.2227.246.3906.164.7382.3946 1.0351.6953a3.12 3.12 0 0 1 .6914 1.043c.164.3906.2461.8008.2461 1.2266ZM11.129 21.6602c.6757-.1094 1.1366-.7461 1.0312-1.4258-.1485-.9453-.207-1.7422-.211-2.3711 2.7969 1.1133 4.961 2.5156 6.7383 4.3555a1.24 1.24 0 0 0 .8906.3789c.3086 0 .6211-.1172.8594-.3516.4922-.4805.504-1.2695.0273-1.7617-2.3593-2.4453-5.2773-4.1992-9.1875-5.5235-.3203-.1054-.6757-.078-.9765.082a1.2373 1.2373 0 0 0-.6133.7696c-.2969 1.0742-.289 2.8281.0234 4.8125.1055.6758.7383 1.1406 1.418 1.0352ZM14.961 27.9297c-.8048-1.1445-1.4766-2.6211-2.0587-4.5117l-.078-.2657c-.1915-.6601-.8829-1.039-1.5391-.8437-.6563.1914-1.0352.8867-.8399 1.5469l.086.293c.6601 2.1523 1.4492 3.8593 2.4062 5.2226a1.245 1.245 0 0 0 1.0156.5234c.2461 0 .4961-.0742.7149-.2265.5586-.3985.6914-1.1758.293-1.7383ZM61.836 29.371c.957-1.3632 1.746-3.0702 2.4062-5.2226 1.1445-3.7343 1.246-6.8789.8437-8.3398a1.2401 1.2401 0 0 0-.6132-.7656 1.2534 1.2534 0 0 0-.9766-.082c-1.0977.371-2.086.7656-3.0234 1.203-.625.2891-.8946 1.0313-.6055 1.6563.289.6211 1.0273.8945 1.6484.6055.4219-.1992.8555-.3828 1.3047-.5625-.0039 1.293-.2422 3.2422-.9492 5.5508-.582 1.8984-1.254 3.375-2.0586 4.5156-.3984.5625-.2656 1.3398.293 1.7383.2187.1523.4687.2265.7187.2265.3867 0 .7696-.1836 1.0117-.5234ZM57.3672 17.914c-1.1133.754-2.1445 1.6212-3.0586 2.5704-.4805.4922-.4688 1.2812.0234 1.7617a1.241 1.241 0 0 0 .8633.3516 1.24 1.24 0 0 0 .8906-.379c.8086-.8398 1.6797-1.5703 2.668-2.2382.5664-.3867.7148-1.1602.332-1.7305s-1.1523-.7227-1.7187-.336Zm0 0"/></svg>