<svg xmlns="http://www.w3.org/2000/svg" xmlns:xlink="http://www.w3.org/1999/xlink" width="100" zoomAndPan="magnify" viewBox="0 0 75 74.999997" height="100" preserveAspectRatio="xMidYMid meet" version="1.0"><defs><clipPath id="3cd5409fc3"><path d="M 0 31.679688 L 75 31.679688 L 75 43.320312 L 0 43.320312 Z M 0 31.679688 " clip-rule="nonzero"/></clipPath><clipPath id="26155a0d34"><path d="M 3.75 31.679688 L 71.25 31.679688 C 73.320312 31.679688 75 33.359375 75 35.429688 L 75 39.570312 C 75 41.640625 73.320312 43.320312 71.25 43.320312 L 3.75 43.320312 C 1.679688 43.320312 0 41.640625 0 39.570312 L 0 35.429688 C 0 33.359375 1.679688 31.679688 3.75 31.679688 Z M 3.75 31.679688 " clip-rule="nonzero"/></clipPath><clipPath id="c01dd4550a"><path d="M 0 15.023438 L 75 15.023438 L 75 26.664062 L 0 26.664062 Z M 0 15.023438 " clip-rule="nonzero"/></clipPath><clipPath id="f1636ea840"><path d="M 3.75 15.023438 L 71.25 15.023438 C 73.320312 15.023438 75 16.703125 75 18.773438 L 75 22.914062 C 75 24.988281 73.320312 26.664062 71.25 26.664062 L 3.75 26.664062 C 1.679688 26.664062 0 24.988281 0 22.914062 L 0 18.773438 C 0 16.703125 1.679688 15.023438 3.75 15.023438 Z M 3.75 15.023438 " clip-rule="nonzero"/></clipPath><clipPath id="4e904790d6"><path d="M 0 48.570312 L 75 48.570312 L 75 60.210938 L 0 60.210938 Z M 0 48.570312 " clip-rule="nonzero"/></clipPath><clipPath id="1730bf14d7"><path d="M 3.75 48.570312 L 71.25 48.570312 C 73.320312 48.570312 75 50.25 75 52.320312 L 75 56.460938 C 75 58.53125 73.320312 60.210938 71.25 60.210938 L 3.75 60.210938 C 1.679688 60.210938 0 58.53125 0 56.460938 L 0 52.320312 C 0 50.25 1.679688 48.570312 3.75 48.570312 Z M 3.75 48.570312 " clip-rule="nonzero"/></clipPath></defs><g clip-path="url(#3cd5409fc3)"><g clip-path="url(#26155a0d34)"><path fill="#ffffff" d="M 0 31.679688 L 74.980469 31.679688 L 74.980469 43.320312 L 0 43.320312 Z M 0 31.679688 " fill-opacity="1" fill-rule="nonzero"/></g></g><g clip-path="url(#c01dd4550a)"><g clip-path="url(#f1636ea840)"><path fill="#ffffff" d="M 0 15.023438 L 74.980469 15.023438 L 74.980469 26.664062 L 0 26.664062 Z M 0 15.023438 " fill-opacity="1" fill-rule="nonzero"/></g></g><g clip-path="url(#4e904790d6)"><g clip-path="url(#1730bf14d7)"><path fill="#ffffff" d="M 0 48.570312 L 74.980469 48.570312 L 74.980469 60.210938 L 0 60.210938 Z M 0 48.570312 " fill-opacity="1" fill-rule="nonzero"/></g></g></svg>